<svg xmlns="http://www.w3.org/2000/svg" viewBox="0 0 128 128">
  <defs>
    <linearGradient id="ahuBody" x1="0" y1="0" x2="0.6" y2="1">
      <stop offset="0%" stop-color="#43545f"/>
      <stop offset="45%" stop-color="#2c3b46"/>
      <stop offset="100%" stop-color="#1b262f"/>
    </linearGradient>
    <linearGradient id="ahuSection" x1="0" y1="0" x2="0.6" y2="1">
      <stop offset="0%" stop-color="#2e3e49"/>
      <stop offset="100%" stop-color="#18242c"/>
    </linearGradient>
    <linearGradient id="ahuDuct" x1="0" y1="0" x2="1" y2="0">
      <stop offset="0%" stop-color="#1a242d"/>
      <stop offset="28%" stop-color="#3a4b57"/>
      <stop offset="62%" stop-color="#243039"/>
      <stop offset="100%" stop-color="#141c24"/>
    </linearGradient>
    <linearGradient id="ahuBlade" x1="0" y1="0" x2="0.7" y2="1">
      <stop offset="0%" stop-color="#4a6478"/>
      <stop offset="55%" stop-color="#2c4152"/>
      <stop offset="100%" stop-color="#1c2b36"/>
    </linearGradient>
    <radialGradient id="ahuHub" cx="0.34" cy="0.3" r="0.75">
      <stop offset="0%" stop-color="#8fb0c9"/>
      <stop offset="45%" stop-color="#41586a"/>
      <stop offset="100%" stop-color="#1d2933"/>
    </radialGradient>
    <radialGradient id="ahuThroat" cx="0.36" cy="0.32" r="0.72">
      <stop offset="0%" stop-color="#24333e"/>
      <stop offset="60%" stop-color="#151f27"/>
      <stop offset="100%" stop-color="#0b1116"/>
    </radialGradient>
    <linearGradient id="ahuSheen" x1="0" y1="0" x2="0.55" y2="1">
      <stop offset="0%" stop-color="#c6d7ea" stop-opacity="0.17"/>
      <stop offset="45%" stop-color="#c6d7ea" stop-opacity="0.05"/>
      <stop offset="100%" stop-color="#c6d7ea" stop-opacity="0"/>
    </linearGradient>
    <radialGradient id="ahuAo" cx="0.5" cy="0.5" r="0.5">
      <stop offset="0%" stop-color="#04070c" stop-opacity="0.5"/>
      <stop offset="60%" stop-color="#04070c" stop-opacity="0.22"/>
      <stop offset="100%" stop-color="#04070c" stop-opacity="0"/>
    </radialGradient>
  </defs>

  <!-- top duct spigots, shaded as cylinders -->
  <rect x="14" y="10" width="14" height="17" rx="2" fill="url(#ahuDuct)"/>
  <rect x="14" y="10" width="14" height="17" rx="2" fill="none" stroke="#3d4e5b" stroke-width="0.8"/>
  <path d="M17.6 11.4 L17.6 25.6" stroke="#9fb6cc" stroke-width="0.9" opacity="0.28"/>
  <path d="M14 18.4 L28 18.4" stroke="#4d6070" stroke-width="1.6"/>
  <path d="M14 17.5 L28 17.5" stroke="#95acc2" stroke-width="0.5" opacity="0.25"/>
  <rect x="100" y="10" width="16" height="17" rx="2" fill="url(#ahuDuct)"/>
  <rect x="100" y="10" width="16" height="17" rx="2" fill="none" stroke="#3d4e5b" stroke-width="0.8"/>
  <path d="M104 11.4 L104 25.6" stroke="#9fb6cc" stroke-width="0.9" opacity="0.24"/>
  <path d="M100 18.4 L116 18.4" stroke="#4d6070" stroke-width="1.6"/>
  <path d="M100 17.5 L116 17.5" stroke="#95acc2" stroke-width="0.5" opacity="0.22"/>

  <!-- main cabinet -->
  <rect x="4" y="24" width="120" height="70" rx="5" fill="url(#ahuBody)"/>
  <rect x="4" y="24" width="120" height="70" rx="5" fill="url(#ahuSheen)"/>
  <!-- brushed sheet-metal grain -->
  <g stroke="#9fb4cc" stroke-width="0.4" opacity="0.1">
    <path d="M6 32 L122 32"/><path d="M6 45 L122 45"/><path d="M6 58 L122 58"/>
    <path d="M6 71 L122 71"/><path d="M6 84 L122 84"/>
  </g>
  <rect x="4" y="26" width="120" height="16" fill="#c6d7ea" opacity="0.06"/>
  <!-- cabinet edge lighting: lit top/left, shadowed bottom/right -->
  <path d="M9 24.6 L119 24.6" stroke="#8fa8c4" stroke-width="0.7" opacity="0.34" stroke-linecap="round"/>
  <path d="M4.7 29 L4.7 89" stroke="#8fa8c4" stroke-width="0.7" opacity="0.2" stroke-linecap="round"/>
  <path d="M123.3 30 L123.3 89 M9 93.4 L119 93.4" fill="none" stroke="#060a10" stroke-width="0.9" opacity="0.5" stroke-linecap="round"/>
  <rect x="4" y="24" width="120" height="70" rx="5" fill="none" stroke="#5c7183" stroke-width="1" opacity="0.5"/>
  <!-- AO pooling along the cabinet floor -->
  <ellipse cx="64" cy="93" rx="58" ry="7" fill="url(#ahuAo)"/>
  <rect x="4" y="24" width="120" height="4.5" rx="2.4" fill="#4c6070" opacity="0.42"/>

  <!-- section dividers, cut as seams -->
  <g stroke-linecap="round">
    <path d="M36 26 L36 92" stroke="#0a121a" stroke-width="1.6" opacity="0.8"/>
    <path d="M36.9 26 L36.9 92" stroke="#7d94aa" stroke-width="0.5" opacity="0.22"/>
    <path d="M72 26 L72 92" stroke="#0a121a" stroke-width="1.6" opacity="0.8"/>
    <path d="M72.9 26 L72.9 92" stroke="#7d94aa" stroke-width="0.5" opacity="0.2"/>
    <path d="M96 26 L96 92" stroke="#0a121a" stroke-width="1.6" opacity="0.8"/>
    <path d="M96.9 26 L96.9 92" stroke="#7d94aa" stroke-width="0.5" opacity="0.18"/>
  </g>
  <g fill="#7d94aa" opacity="0.45">
    <rect x="8" y="28" width="24" height="2" rx="1"/>
    <rect x="40" y="28" width="28" height="2" rx="1"/>
    <rect x="76" y="28" width="16" height="2" rx="1"/>
    <rect x="100" y="28" width="20" height="2" rx="1"/>
  </g>

  <!-- filter bank, recessed into the cabinet -->
  <rect x="8" y="34" width="24" height="52" rx="2" fill="url(#ahuSection)"/>
  <path d="M9 35 L31 35 M9 35 L9 85" fill="none" stroke="#060a10" stroke-width="1.4" opacity="0.6"/>
  <path d="M9 85.4 L31 85.4 M31.2 35 L31.2 85" fill="none" stroke="#7d94aa" stroke-width="0.6" opacity="0.2"/>
  <g stroke="#31414f" stroke-width="0.8" opacity="0.75">
    <path d="M12 36 L12 84"/><path d="M16 36 L16 84"/><path d="M20 36 L20 84"/><path d="M24 36 L24 84"/><path d="M28 36 L28 84"/>
    <path d="M8 40 L32 40"/><path d="M8 46 L32 46"/><path d="M8 52 L32 52"/><path d="M8 58 L32 58"/>
    <path d="M8 64 L32 64"/><path d="M8 70 L32 70"/><path d="M8 76 L32 76"/><path d="M8 82 L32 82"/>
  </g>
  <rect x="8" y="34" width="24" height="52" rx="2" fill="url(#ahuSheen)"/>
  <rect x="8" y="34" width="24" height="52" rx="2" fill="none" stroke="#4b5d6c" stroke-width="0.7"/>

  <!-- fan section -->
  <rect x="39" y="34" width="30" height="52" rx="2" fill="url(#ahuSection)"/>
  <path d="M40 35 L68 35 M40 35 L40 85" fill="none" stroke="#060a10" stroke-width="1.4" opacity="0.55"/>
  <circle cx="54" cy="60" r="22" fill="url(#ahuThroat)"/>
  <circle cx="54" cy="60" r="22" fill="none" stroke="#060a10" stroke-width="1.6" opacity="0.65"/>
  <path d="M38 45 A22 22 0 0 1 68 47" fill="none" stroke="#8fa8c4" stroke-width="0.9" opacity="0.28" stroke-linecap="round"/>
  <g fill="url(#ahuBlade)">
    <path d="M54 38 Q60.5 46 54 54 Q47.5 46 54 38Z"/>
    <path d="M76 60 Q68 66.5 60 60 Q68 53.5 76 60Z"/>
    <path d="M54 82 Q47.5 74 54 66 Q60.5 74 54 82Z"/>
    <path d="M32 60 Q40 53.5 48 60 Q40 66.5 32 60Z"/>
  </g>
  <g fill="none" stroke="#a8c2d8" stroke-width="0.55" opacity="0.35" stroke-linecap="round">
    <path d="M54 39.4 Q59 46 54.4 52.4"/>
    <path d="M33.8 60 Q40 54.8 46.8 59.6"/>
  </g>
  <g fill="none" stroke="#070c12" stroke-width="0.6" opacity="0.5" stroke-linecap="round">
    <path d="M54 80.6 Q59.2 74 54.4 67.6"/>
    <path d="M74.4 60 Q68 65.2 61.2 60.4"/>
  </g>
  <circle cx="54" cy="60" r="6.4" fill="url(#ahuHub)"/>
  <circle cx="54" cy="60" r="6.4" fill="none" stroke="#0a1219" stroke-width="0.6" opacity="0.6"/>
  <circle cx="52.2" cy="58.2" r="1.5" fill="#e6f0fb" opacity="0.55"/>
  <rect x="39" y="34" width="30" height="52" rx="2" fill="none" stroke="#4b5d6c" stroke-width="0.7"/>

  <!-- heat-exchanger coil -->
  <rect x="75" y="34" width="18" height="52" rx="2" fill="url(#ahuSection)"/>
  <path d="M76 35 L92 35 M76 35 L76 85" fill="none" stroke="#060a10" stroke-width="1.4" opacity="0.55"/>
  <g stroke-linecap="round">
    <path d="M78 36 L78 84" stroke="#0c141b" stroke-width="1.8"/>
    <path d="M78.9 36 L78.9 84" stroke="#93aabf" stroke-width="0.5" opacity="0.24"/>
    <path d="M82 36 L82 84" stroke="#0c141b" stroke-width="1.8"/>
    <path d="M82.9 36 L82.9 84" stroke="#93aabf" stroke-width="0.5" opacity="0.2"/>
    <path d="M86 36 L86 84" stroke="#0c141b" stroke-width="1.8"/>
    <path d="M86.9 36 L86.9 84" stroke="#93aabf" stroke-width="0.5" opacity="0.17"/>
    <path d="M90 36 L90 84" stroke="#0c141b" stroke-width="1.8"/>
    <path d="M90.9 36 L90.9 84" stroke="#93aabf" stroke-width="0.5" opacity="0.14"/>
  </g>
  <rect x="75" y="34" width="18" height="52" rx="2" fill="url(#ahuSheen)"/>
  <rect x="75" y="34" width="18" height="52" rx="2" fill="none" stroke="#4b5d6c" stroke-width="0.7"/>

  <!-- control panel -->
  <rect x="99" y="34" width="21" height="52" rx="2" fill="#19212e"/>
  <rect x="99" y="34" width="21" height="52" rx="2" fill="url(#ahuSheen)"/>
  <path d="M100 35 L119 35 M100 35 L100 85" fill="none" stroke="#060a10" stroke-width="1.4" opacity="0.6"/>
  <rect x="99" y="34" width="21" height="52" rx="2" fill="none" stroke="#41525f" stroke-width="0.7"/>
  <ellipse cx="109.5" cy="85" rx="10" ry="3" fill="url(#ahuAo)"/>
  <!-- readout with bloom and glass streak -->
  <rect x="100.4" y="37.4" width="18.2" height="13.2" rx="2.4" fill="#2b6fa8" opacity="0.2"/>
  <rect x="101" y="38" width="17" height="12" rx="2" fill="#132436"/>
  <rect x="103" y="40" width="10" height="2" rx="1" fill="#8fc0e6" opacity="0.75"/>
  <rect x="103" y="44" width="7" height="2" rx="1" fill="#8fc0e6" opacity="0.5"/>
  <path d="M101.4 38.4 L108 38.4 L103.4 49.6 L101.4 49.6 Z" fill="#dcecfb" opacity="0.08"/>
  <!-- buttons, each bedded with a shadow -->
  <g>
    <rect x="101" y="54.6" width="6" height="4" rx="1.2" fill="#0a1017" opacity="0.6"/>
    <rect x="101" y="54" width="6" height="4" rx="1.2" fill="#33475a"/>
    <rect x="101.5" y="54.4" width="5" height="1.4" rx="0.7" fill="#9fb8d0" opacity="0.3"/>
    <rect x="109" y="54.6" width="6" height="4" rx="1.2" fill="#0a1017" opacity="0.6"/>
    <rect x="109" y="54" width="6" height="4" rx="1.2" fill="#33475a"/>
    <rect x="109.5" y="54.4" width="5" height="1.4" rx="0.7" fill="#9fb8d0" opacity="0.26"/>
    <rect x="101" y="61.6" width="6" height="4" rx="1.2" fill="#0a1017" opacity="0.6"/>
    <rect x="101" y="61" width="6" height="4" rx="1.2" fill="#33475a"/>
    <rect x="101.5" y="61.4" width="5" height="1.4" rx="0.7" fill="#9fb8d0" opacity="0.26"/>
    <rect x="109" y="61.6" width="6" height="4" rx="1.2" fill="#0a1017" opacity="0.6"/>
    <rect x="109" y="61" width="6" height="4" rx="1.2" fill="#33475a"/>
    <rect x="109.5" y="61.4" width="5" height="1.4" rx="0.7" fill="#9fb8d0" opacity="0.22"/>
  </g>
  <!-- access door -->
  <rect x="101" y="70" width="17" height="14" rx="1.4" fill="#1d2833"/>
  <rect x="101" y="70" width="17" height="14" rx="1.4" fill="url(#ahuSheen)"/>
  <rect x="101" y="70" width="17" height="14" rx="1.4" fill="none" stroke="#3e4f5d" stroke-width="0.6"/>
  <path d="M103 70.6 L103 83.4" stroke="#0a1017" stroke-width="1" opacity="0.7"/>
  <circle cx="103" cy="77" r="1.5" fill="#4a5e70"/>
  <circle cx="102.5" cy="76.5" r="0.6" fill="#c3d6e9" opacity="0.5"/>
  <!-- status LED, glowing -->
  <circle cx="110" cy="81" r="4" fill="#bfe0ff" opacity="0.14"/>
  <circle cx="110" cy="81" r="2.5" fill="#eaf4ff" opacity="0.85"/>
  <circle cx="109.4" cy="80.4" r="0.9" fill="#ffffff"/>

  <!-- drain pan -->
  <rect x="4" y="92" width="120" height="6" rx="3" fill="#131b24"/>
  <path d="M7 92.6 L121 92.6" stroke="#7d94aa" stroke-width="0.6" opacity="0.22" stroke-linecap="round"/>
  <rect x="58" y="96" width="12" height="8" rx="2" fill="#25303f"/>
  <path d="M59.4 96.6 L59.4 103" stroke="#9fb4cc" stroke-width="0.7" opacity="0.25"/>
  <ellipse cx="64" cy="104" rx="10" ry="2.6" fill="url(#ahuAo)"/>
</svg>
