<svg xmlns="http://www.w3.org/2000/svg" viewBox="0 0 128 128">
  <defs>
    <linearGradient id="xnShell" x1="0.18" y1="0.02" x2="0.62" y2="1">
      <stop offset="0%" stop-color="#4a5062"/>
      <stop offset="16%" stop-color="#2e313e"/>
      <stop offset="44%" stop-color="#181a24"/>
      <stop offset="76%" stop-color="#0d0e14"/>
      <stop offset="100%" stop-color="#06060a"/>
    </linearGradient>
    <linearGradient id="xnJawShell" x1="0.1" y1="0" x2="0.5" y2="1">
      <stop offset="0%" stop-color="#3d4252"/>
      <stop offset="40%" stop-color="#1c1f29"/>
      <stop offset="100%" stop-color="#05050a"/>
    </linearGradient>
    <linearGradient id="xnNeck" x1="0" y1="0" x2="1" y2="0.4">
      <stop offset="0%" stop-color="#070710"/>
      <stop offset="42%" stop-color="#20222d"/>
      <stop offset="100%" stop-color="#08080e"/>
    </linearGradient>
    <linearGradient id="xnSpecA" x1="0" y1="0" x2="1" y2="0.25">
      <stop offset="0%" stop-color="#dfe9f6" stop-opacity="0"/>
      <stop offset="22%" stop-color="#e8f1fb" stop-opacity="0.62"/>
      <stop offset="52%" stop-color="#c3d3e6" stop-opacity="0.42"/>
      <stop offset="100%" stop-color="#8fa3bd" stop-opacity="0"/>
    </linearGradient>
    <linearGradient id="xnSpecB" x1="0" y1="0" x2="1" y2="0.4">
      <stop offset="0%" stop-color="#9fb4cd" stop-opacity="0"/>
      <stop offset="40%" stop-color="#b7c8dd" stop-opacity="0.3"/>
      <stop offset="100%" stop-color="#7f93ad" stop-opacity="0"/>
    </linearGradient>
    <radialGradient id="xnBloom" cx="0.34" cy="0.24" r="0.62">
      <stop offset="0%" stop-color="#b9c9de" stop-opacity="0.34"/>
      <stop offset="46%" stop-color="#7c8ea7" stop-opacity="0.12"/>
      <stop offset="100%" stop-color="#6a7c92" stop-opacity="0"/>
    </radialGradient>
    <linearGradient id="xnRim" x1="0" y1="0" x2="1" y2="0.3">
      <stop offset="0%" stop-color="#7d90ab" stop-opacity="0"/>
      <stop offset="30%" stop-color="#cddbec" stop-opacity="0.75"/>
      <stop offset="72%" stop-color="#8fa3bd" stop-opacity="0.5"/>
      <stop offset="100%" stop-color="#5b6b82" stop-opacity="0"/>
    </linearGradient>
    <linearGradient id="xnBounce" x1="0" y1="0" x2="1" y2="0">
      <stop offset="0%" stop-color="#46566c" stop-opacity="0"/>
      <stop offset="45%" stop-color="#66798f" stop-opacity="0.42"/>
      <stop offset="100%" stop-color="#46566c" stop-opacity="0"/>
    </linearGradient>
    <radialGradient id="xnAO" cx="0.5" cy="0.5" r="0.5">
      <stop offset="0%" stop-color="#000000" stop-opacity="0.72"/>
      <stop offset="60%" stop-color="#000000" stop-opacity="0.32"/>
      <stop offset="100%" stop-color="#000000" stop-opacity="0"/>
    </radialGradient>
    <radialGradient id="xnMaw" cx="0.72" cy="0.4" r="0.8">
      <stop offset="0%" stop-color="#241426"/>
      <stop offset="55%" stop-color="#0e0713"/>
      <stop offset="100%" stop-color="#030106"/>
    </radialGradient>
    <linearGradient id="xnEnamel" x1="0.1" y1="0" x2="0.7" y2="1">
      <stop offset="0%" stop-color="#e2ecf7"/>
      <stop offset="28%" stop-color="#a9bacd"/>
      <stop offset="64%" stop-color="#5f6f86"/>
      <stop offset="100%" stop-color="#242c39"/>
    </linearGradient>
    <linearGradient id="xnEnamelLo" x1="0.1" y1="1" x2="0.7" y2="0">
      <stop offset="0%" stop-color="#cddbea"/>
      <stop offset="34%" stop-color="#93a4ba"/>
      <stop offset="100%" stop-color="#232a36"/>
    </linearGradient>
    <linearGradient id="xnDrool" x1="0" y1="0" x2="0.3" y2="1">
      <stop offset="0%" stop-color="#d7e8e6" stop-opacity="0.46"/>
      <stop offset="45%" stop-color="#a9cbc4" stop-opacity="0.3"/>
      <stop offset="100%" stop-color="#7fac9f" stop-opacity="0.2"/>
    </linearGradient>
    <radialGradient id="xnBead" cx="0.34" cy="0.28" r="0.75">
      <stop offset="0%" stop-color="#f4faf9" stop-opacity="0.8"/>
      <stop offset="38%" stop-color="#b3ccc6" stop-opacity="0.44"/>
      <stop offset="100%" stop-color="#5d8b7d" stop-opacity="0.26"/>
    </radialGradient>
    <clipPath id="xnSkullClip"><path d="M14 67.5C8.4 61.4 9 50.4 16 43.4C22 32.6 34 24.6 50 22.2C78 17.8 104 26 117 45C121.4 52 116.4 59.4 106 59.4C94 60.8 83 63.6 74 66.4C56 69 33 69.5 14 67.5Z"/></clipPath>
    <clipPath id="xnJawClip"><path d="M18 81C11 83.5 10 91.5 18.5 95.5C34 102 58 96 70.5 83C74.5 78.5 75 72 71 69.5C56 73.5 36 77.5 18 81Z"/></clipPath>
    <clipPath id="xnNeckClip"><path d="M74 65C88 71 96 85 99.5 103C101 113 101.5 121 101.5 128L75 128C75 114 73.5 96 67 78Z"/></clipPath>
  </defs>
  <!-- shoulder tubes -->
  <g fill="none" stroke-linecap="round">
    <path d="M90 82C102 84 112 92 120 106C123 111 125 117 126 124" stroke="#06060b" stroke-width="11"/>
    <path d="M90 82C102 84 112 92 120 106C123 111 125 117 126 124" stroke="#1f2230" stroke-width="7"/>
    <path d="M90.6 80.4C102.6 82.6 112.4 90.4 120.4 104.4" stroke="#6a7d95" stroke-width="1.2" opacity="0.34"/>
    <path d="M95 100C106 102 115 108 122 120C124 123 125 126 125.6 128" stroke="#05050a" stroke-width="9.6"/>
    <path d="M95 100C106 102 115 108 122 120C124 123 125 126 125.6 128" stroke="#1a1d29" stroke-width="6"/>
    <path d="M95.6 98.6C106.4 100.6 115 106.6 121.6 118" stroke="#5b6c83" stroke-width="1" opacity="0.24"/>
  </g>
  <g fill="none" stroke="#08080e" stroke-width="1.3" opacity="0.7" stroke-linecap="round">
    <path d="M100.6 79.4L98.4 88"/><path d="M110 85.4L106 93.6"/><path d="M118 95.4L112.4 102.4"/>
    <path d="M105.4 97L103.4 105.6"/><path d="M114.6 104L111 111.4"/>
  </g>
  <!-- neck: tubes inside a segmented rib cage -->
  <path d="M75 64C90 70 98 85 101.5 103C103 113 103.5 121 103.5 128" fill="none" stroke="#040408" stroke-width="3.4" opacity="0.8"/>
  <path d="M74 65C88 71 96 85 99.5 103C101 113 101.5 121 101.5 128L75 128C75 114 73.5 96 67 78Z" fill="url(#xnNeck)"/>
  <g clip-path="url(#xnNeckClip)">
    <g fill="none" stroke-linecap="round">
      <path d="M72 64C84 74 91 90 94 128" stroke="#282b37" stroke-width="3.2"/>
      <path d="M71.2 64C83.2 74 90.2 90 93.2 128" stroke="#66788f" stroke-width="0.7" opacity="0.3"/>
      <path d="M80 66C90 78 96 96 97 128" stroke="#23262f" stroke-width="2.8"/>
      <path d="M79.2 66C89.2 78 95.2 96 96.2 128" stroke="#5a6b81" stroke-width="0.6" opacity="0.22"/>
    </g>
    <g fill="none" stroke-linecap="round">
      <path d="M65 70C74 71 81 77 85 85" stroke="#0a0a10" stroke-width="4.2"/>
      <path d="M65 70C74 71 81 77 85 85" stroke="#212431" stroke-width="2.2"/>
      <path d="M65.4 69.1C74 70.1 80.6 76 84.6 83.8" stroke="#66788f" stroke-width="0.6" opacity="0.26"/>
      <path d="M67 84C76 85 84 91 88 100" stroke="#090910" stroke-width="4.4"/>
      <path d="M67 84C76 85 84 91 88 100" stroke="#1f2230" stroke-width="2.3"/>
      <path d="M67.4 83.1C76 84.1 83.6 90 87.6 98.8" stroke="#5d6e85" stroke-width="0.6" opacity="0.22"/>
      <path d="M70 99C79 100 88 106 92 116" stroke="#08080e" stroke-width="4.6"/>
      <path d="M70 99C79 100 88 106 92 116" stroke="#1c1f2a" stroke-width="2.4"/>
      <path d="M70.4 98.1C79 99.1 87.6 105 91.6 114.8" stroke="#55657b" stroke-width="0.6" opacity="0.18"/>
      <path d="M73 115C82 116 92 122 96 128" stroke="#07070d" stroke-width="4.8"/>
      <path d="M73 115C82 116 92 122 96 128" stroke="#1a1d27" stroke-width="2.5"/>
    </g>
    <ellipse cx="66" cy="100" rx="9" ry="34" fill="url(#xnAO)"/>
  </g>
  <path d="M78 68C90 78 97 96 99 128" fill="none" stroke="#4e5d72" stroke-width="0.8" opacity="0.3" stroke-linecap="round"/>
  <!-- maw -->
  <path d="M14 67.5C33 69.5 56 69 71 69C74 70.2 74 71 71 70.5C56 74 36 78 18 81C14 77.4 13 72.4 14 67.5Z" fill="url(#xnMaw)"/>
  <!-- lower jaw -->
  <path d="M18 81C11 83.5 10 91.5 18.5 95.5C34 102 58 96 70.5 83C74.5 78.5 75 72 71 69.5C56 73.5 36 77.5 18 81Z" fill="url(#xnJawShell)"/>
  <g clip-path="url(#xnJawClip)">
    <ellipse cx="30" cy="97" rx="28" ry="9" fill="url(#xnAO)"/>
    <ellipse cx="66" cy="76" rx="10" ry="8" fill="url(#xnAO)"/>
    <path d="M20 85C34 87 52 84 66 75" fill="none" stroke="url(#xnSpecB)" stroke-width="2.8" stroke-linecap="round"/>
    <path d="M17 90C30 94 50 90 65 79" fill="none" stroke="#5d6f87" stroke-width="0.7" opacity="0.26" stroke-linecap="round"/>
  </g>
  <path d="M18.4 80.6C11.6 83.2 10.7 91.2 18.9 95" fill="none" stroke="#6d7c92" stroke-width="0.95" opacity="0.5" stroke-linecap="round"/>
  <path d="M19.6 95.9C34.6 102.2 57.6 96.4 70 83.4" fill="none" stroke="url(#xnBounce)" stroke-width="1.5" stroke-linecap="round"/>
  <!-- cranium: one unbroken sweep, brow to crest -->
  <path d="M14 67.5C8.4 61.4 9 50.4 16 43.4C22 32.6 34 24.6 50 22.2C78 17.8 104 26 117 45C121.4 52 116.4 59.4 106 59.4C94 60.8 83 63.6 74 66.4C56 69 33 69.5 14 67.5Z" fill="url(#xnShell)"/>
  <g clip-path="url(#xnSkullClip)">
    <ellipse cx="52" cy="34" rx="46" ry="20" fill="url(#xnBloom)"/>
    <ellipse cx="60" cy="72" rx="52" ry="15" fill="url(#xnAO)"/>
    <g fill="none" stroke="#0a0b11" stroke-width="1.3" opacity="0.5">
      <path d="M16 51C28 34 58 25 106 41"/>
      <path d="M14 59C30 43 64 33 114 49"/>
      <path d="M18 66C36 53 72 45 112 56"/>
    </g>
    <g fill="none" stroke="#7286a0" stroke-width="0.5" opacity="0.24">
      <path d="M16 49.9C28 32.9 58 23.9 106 39.9"/>
      <path d="M14 57.9C30 41.9 64 31.9 114 47.9"/>
      <path d="M18 64.9C36 51.9 72 43.9 112 54.9"/>
    </g>
    <path d="M19 47C26 33 38 24 62 22C40 27 29 36 23 49Z" fill="url(#xnSpecA)"/>
    <path d="M22 45C29 32 41 25 66 23" fill="none" stroke="url(#xnSpecA)" stroke-width="2.4" stroke-linecap="round"/>
    <path d="M58 23.4C80 21.4 100 29 112 45" fill="none" stroke="url(#xnSpecA)" stroke-width="1.8" stroke-linecap="round" opacity="0.6"/>
    <path d="M17 58C30 45 62 36 104 49" fill="none" stroke="url(#xnSpecB)" stroke-width="3.4" stroke-linecap="round"/>
    <path d="M26.4 42.6C31.4 33.6 39.4 27 49.4 23.4C41 28.4 33.6 35.4 29.6 44.6Z" fill="#eef4ff" opacity="0.44"/>
    <path d="M29.4 39.4C33 34.2 38 30.2 44.4 27.6C38.6 31.4 34 35.8 31.6 40.6Z" fill="#ffffff" opacity="0.5"/>
    <path d="M62 25.6C80 24.4 96 30 107 42.6" fill="none" stroke="#dbe7f6" stroke-width="1.5" opacity="0.26" stroke-linecap="round"/>
    <path d="M56 48.6C72 47.6 88 50.4 100 55.4" fill="none" stroke="#9db1c9" stroke-width="2.2" opacity="0.1" stroke-linecap="round"/>
    <ellipse cx="26" cy="52" rx="13" ry="6.5" fill="url(#xnAO)" transform="rotate(-34 26 52)"/>
    <ellipse cx="25" cy="49" rx="9" ry="3.4" fill="#8ba0bb" opacity="0.07" transform="rotate(-34 25 49)"/>
    <path d="M18 62C34 61 52 62 68 65.5" fill="none" stroke="#0a0b11" stroke-width="1.5" opacity="0.55"/>
    <path d="M18 61C34 60 52 61 68 64.5" fill="none" stroke="#6b7e97" stroke-width="0.55" opacity="0.24"/>
    <ellipse cx="52" cy="68" rx="34" ry="8" fill="url(#xnAO)"/>
    <path d="M20 57C36 55 56 57 72 63" fill="none" stroke="#08090e" stroke-width="2.6" opacity="0.4"/>
    <ellipse cx="92" cy="62" rx="24" ry="9" fill="url(#xnAO)"/>
    <ellipse cx="13" cy="66" rx="8" ry="7" fill="url(#xnAO)"/>
    <path d="M15 65.5C34 67.4 56 67 70 67" fill="none" stroke="#3d4453" stroke-width="1.5" opacity="0.5" stroke-linecap="round"/>
  </g>
  <!-- rim light + cool bounce -->
  <path d="M17.4 38.6C22 32.6 34 24.6 50 22.2C78 17.8 104 26 117 45"
        fill="none" stroke="url(#xnRim)" stroke-width="1.5" stroke-linecap="round"/>
  <path d="M106 59.4C94 60.8 83 63.6 74 66.4"
        fill="none" stroke="url(#xnBounce)" stroke-width="1.2" stroke-linecap="round"/>
  <path d="M14 67.5C8.4 61.4 9 50.4 16 43.4"
        fill="none" stroke="#66748b" stroke-width="0.95" opacity="0.42" stroke-linecap="round"/>
  <!-- contour -->
  <path d="M14 67.5C8.4 61.4 9 50.4 16 43.4C22 32.6 34 24.6 50 22.2C78 17.8 104 26 117 45C121.4 52 116.4 59.4 106 59.4C94 60.8 83 63.6 74 66.4C56 69 33 69.5 14 67.5Z" fill="none" stroke="#39414f" stroke-width="0.55" opacity="0.45"/>
  <path d="M18 81C11 83.5 10 91.5 18.5 95.5C34 102 58 96 70.5 83C74.5 78.5 75 72 71 69.5C56 73.5 36 77.5 18 81Z" fill="none" stroke="#39414f" stroke-width="0.5" opacity="0.4"/>
  <!-- teeth -->
  <g stroke="#141a24" stroke-width="0.26" stroke-linejoin="round">
    <path d="M17.2 81.2L20 80.6L18.3 75.6ZM20.5 80.5L23.2 79.9L21.6 75.2ZM23.6 79.8L26.3 79.3L24.8 74.8ZM26.8 79.2L29.4 78.6L27.9 74.5ZM29.8 78.5L32.4 78L31 74.1ZM32.8 77.9L35.4 77.4L33.9 73.8ZM35.8 77.3L38.2 76.8L36.9 73.5ZM38.6 76.7L41 76.2L39.7 73.2ZM41.4 76.1L43.8 75.7L42.5 72.8ZM44.2 75.6L46.4 75.1L45.3 72.5ZM46.8 75L49 74.6L47.9 72.2ZM49.4 74.5L51.6 74L50.5 71.9ZM51.9 74L54 73.5L53 71.7ZM54.4 73.5L56.4 73L55.5 71.4ZM56.7 73L58.7 72.5L57.9 71.1ZM59.1 72.5L61 72.1L60.2 70.9ZM61.3 72L63.1 71.6L62.4 70.6Z" fill="url(#xnEnamelLo)"/>
    <path d="M14.5 67.5L17.5 67.6L15.6 73.9ZM17.8 67.6L20.8 67.7L18.9 73.7ZM21 67.7L23.9 67.8L22.1 73.4ZM24.2 67.8L27 67.8L25.3 73.1ZM27.3 67.8L30.1 67.9L28.4 72.9ZM30.3 67.9L33.1 68L31.4 72.7ZM33.3 68L36 68.1L34.4 72.4ZM36.2 68.1L38.8 68.2L37.3 72.2ZM39 68.2L41.6 68.2L40.1 72ZM41.8 68.2L44.3 68.3L42.9 71.7ZM44.5 68.3L46.9 68.4L45.6 71.5ZM47.1 68.4L49.5 68.4L48.2 71.3ZM49.7 68.4L52 68.5L50.8 71.1ZM52.2 68.5L54.4 68.6L53.3 70.9ZM54.6 68.6L56.8 68.6L55.7 70.7ZM56.9 68.6L59 68.7L58.1 70.5ZM59.2 68.7L61.3 68.7L60.3 70.3ZM61.4 68.7L63.4 68.8L62.6 70.2ZM63.5 68.8L65.5 68.9L64.7 70Z" fill="url(#xnEnamel)"/>
  </g>
  <g stroke="#f0f6ff" stroke-width="0.38" opacity="0.5" stroke-linecap="round" fill="none">
    <path d="M14.8 67.9L15.9 72.8M18.1 68L19.2 72.6M21.3 68L22.4 72.4M24.5 68.1L25.6 72.2M27.6 68.2L28.7 72M30.6 68.2L31.7 71.8M33.6 68.3L34.7 71.6M36.5 68.3L37.6 71.4M39.3 68.4L40.4 71.3M42.1 68.4L43.2 71.1M44.8 68.5L45.9 70.9M47.4 68.5L48.6 70.8M50 68.6L51.1 70.6M52.5 68.6L53.6 70.5M54.9 68.7L56 70.3M57.3 68.7L58.4 70.2M59.6 68.8L60.7 70M61.8 68.8L62.9 69.9M63.9 68.9L65 69.8"/>
  </g>
  <g stroke="#dfeaf7" stroke-width="0.32" opacity="0.34" stroke-linecap="round" fill="none">
    <path d="M17.5 80.8L18.6 76.6M20.8 80.2L21.9 76.2M24 79.5L25.1 75.7M27.1 78.9L28.2 75.3M30.2 78.3L31.3 74.9M33.2 77.7L34.3 74.5M36.1 77.1L37.2 74.2M39 76.5L40.1 73.8M41.8 75.9L42.9 73.4M44.5 75.4L45.6 73.1M47.2 74.9L48.3 72.7M49.8 74.3L50.8 72.4M52.3 73.8L53.4 72.1M54.7 73.3L55.8 71.8M57.1 72.8L58.2 71.4M59.4 72.4L60.5 71.1M61.6 71.9L62.7 70.9"/>
  </g>
  <circle cx="15.5" cy="68.5" r="0.38" fill="#e8f2ff" opacity="0.6"/><circle cx="18.7" cy="68.6" r="0.38" fill="#e8f2ff" opacity="0.6"/><circle cx="21.9" cy="68.6" r="0.38" fill="#e8f2ff" opacity="0.6"/><circle cx="25.1" cy="68.6" r="0.38" fill="#e8f2ff" opacity="0.6"/><circle cx="28.2" cy="68.7" r="0.38" fill="#e8f2ff" opacity="0.6"/><circle cx="31.2" cy="68.7" r="0.38" fill="#e8f2ff" opacity="0.6"/><circle cx="34.1" cy="68.7" r="0.38" fill="#e8f2ff" opacity="0.6"/><circle cx="37" cy="68.7" r="0.38" fill="#e8f2ff" opacity="0.6"/><circle cx="39.8" cy="68.8" r="0.38" fill="#e8f2ff" opacity="0.6"/><circle cx="42.6" cy="68.8" r="0.38" fill="#e8f2ff" opacity="0.6"/><circle cx="45.3" cy="68.8" r="0.38" fill="#e8f2ff" opacity="0.6"/><circle cx="47.9" cy="68.8" r="0.38" fill="#e8f2ff" opacity="0.6"/><circle cx="50.4" cy="68.9" r="0.38" fill="#e8f2ff" opacity="0.6"/><circle cx="52.9" cy="68.9" r="0.38" fill="#e8f2ff" opacity="0.6"/><circle cx="55.3" cy="68.9" r="0.38" fill="#e8f2ff" opacity="0.6"/><circle cx="57.6" cy="68.9" r="0.38" fill="#e8f2ff" opacity="0.6"/><circle cx="59.9" cy="69" r="0.38" fill="#e8f2ff" opacity="0.6"/><circle cx="62.1" cy="69" r="0.38" fill="#e8f2ff" opacity="0.6"/><circle cx="64.2" cy="69" r="0.38" fill="#e8f2ff" opacity="0.6"/>
  <circle cx="18.1" cy="80.3" r="0.3" fill="#e8f2ff" opacity="0.4"/><circle cx="21.3" cy="79.6" r="0.3" fill="#e8f2ff" opacity="0.4"/><circle cx="24.5" cy="79" r="0.3" fill="#e8f2ff" opacity="0.4"/><circle cx="27.6" cy="78.4" r="0.3" fill="#e8f2ff" opacity="0.4"/><circle cx="30.7" cy="77.8" r="0.3" fill="#e8f2ff" opacity="0.4"/><circle cx="33.7" cy="77.3" r="0.3" fill="#e8f2ff" opacity="0.4"/><circle cx="36.6" cy="76.7" r="0.3" fill="#e8f2ff" opacity="0.4"/><circle cx="39.4" cy="76.1" r="0.3" fill="#e8f2ff" opacity="0.4"/><circle cx="42.2" cy="75.6" r="0.3" fill="#e8f2ff" opacity="0.4"/><circle cx="44.9" cy="75.1" r="0.3" fill="#e8f2ff" opacity="0.4"/><circle cx="47.5" cy="74.6" r="0.3" fill="#e8f2ff" opacity="0.4"/><circle cx="50.1" cy="74.1" r="0.3" fill="#e8f2ff" opacity="0.4"/><circle cx="52.6" cy="73.6" r="0.3" fill="#e8f2ff" opacity="0.4"/><circle cx="55" cy="73.1" r="0.3" fill="#e8f2ff" opacity="0.4"/><circle cx="57.4" cy="72.7" r="0.3" fill="#e8f2ff" opacity="0.4"/><circle cx="59.7" cy="72.2" r="0.3" fill="#e8f2ff" opacity="0.4"/><circle cx="61.9" cy="71.8" r="0.3" fill="#e8f2ff" opacity="0.4"/>
  <!-- inner pharyngeal jaw -->
  <g>
    <path d="M20 72.5C11.5 70.5 4 72.5 2 77.5C0.2 83 4.6 87.6 11.2 86.6C16.8 85.8 21 82 22.4 76.8C22.8 74.6 22.4 73 20 72.5Z"
          fill="#100a18" stroke="#2b3242" stroke-width="0.55"/>
    <path d="M19 74C12.6 72.4 6.6 73.8 4.4 77.6" fill="none" stroke="#8496ae" stroke-width="0.7" opacity="0.42" stroke-linecap="round"/>
    <ellipse cx="10.4" cy="76.6" rx="6" ry="2.4" fill="#8fa3bd" opacity="0.14" transform="rotate(-12 10.4 76.6)"/>
    <path d="M4.6 78.8L2.8 76.8L4.2 80.4L2.2 79.6L4.8 82.6L3 83.2L6.4 84.4L6 86.6L8.4 84.2L9.8 86.2L10.8 83.2L13.4 84.4L13 81.4L16 81.8L14.8 79L18 78.4L16.8 76.2"
          fill="#1a2431" stroke="#9fb2c9" stroke-width="0.35" stroke-linejoin="round" opacity="0.9"/>
  </g>
  <!-- drool -->
  <g>
    <path d="M25 74C25.8 78 24.8 80.4 22.8 81.8" fill="none" stroke="#cfe6e2" stroke-width="0.62" opacity="0.38" stroke-linecap="round"/>
    <path d="M42 73C42.6 75.8 41.6 77.4 39.6 78.4" fill="none" stroke="#cfe6e2" stroke-width="0.52" opacity="0.3" stroke-linecap="round"/>
    <path d="M56 71.6C56.4 73.4 55.6 74.4 54.2 75" fill="none" stroke="#cfe6e2" stroke-width="0.42" opacity="0.24" stroke-linecap="round"/>
    <path d="M22.4 95.6C21.6 103 21.2 109 21.7 113.4C23.1 114.6 23.2 116.9 21.7 117.8C20.2 118.7 18.5 117.6 18.7 115.9C18.9 114.4 19.6 113.8 20.4 113.4C20.6 108.4 20.5 102.4 20.6 95.6Z" fill="url(#xnDrool)"/>
    <path d="M37.6 99.6C37 106 36.6 111.6 37.1 115.8C38.6 117.2 38.6 119.7 37 120.7C35.4 121.7 33.6 120.5 33.8 118.6C34 117.1 34.8 116.4 35.6 115.8C35.8 111 35.8 105.2 35.9 99.6Z" fill="url(#xnDrool)"/>
    <path d="M53.6 96.4C53.1 102 52.8 106.6 53.2 110.2C54.4 111.3 54.4 113.4 53.1 114.2C51.8 115 50.3 114 50.5 112.4C50.6 111.1 51.3 110.5 51.9 110.2C52.1 105.8 52.1 101 52.2 96.4Z" fill="url(#xnDrool)"/>
    <path d="M12.2 88.8C11.6 95 11.4 100 11.8 103.6C13 104.6 13 106.6 11.7 107.4C10.4 108.1 9 107.2 9.2 105.6C9.3 104.4 9.9 103.9 10.5 103.6C10.7 99.4 10.7 94.4 10.8 88.8Z" fill="url(#xnDrool)"/>
    <g stroke="#f4fffc" stroke-linecap="round" fill="none" opacity="0.52">
      <path d="M21.3 97.4C20.7 104 20.5 109.4 20.8 112.4" stroke-width="0.46"/>
      <path d="M36.4 101.2C35.9 107 35.8 112.4 36 115" stroke-width="0.46"/>
      <path d="M52.5 97.8C52.1 102.6 52 106.4 52.1 109.2" stroke-width="0.4"/>
      <path d="M11.1 90.2C10.7 95.4 10.7 99.8 10.8 102.6" stroke-width="0.36"/>
    </g>
    <ellipse cx="21.2" cy="115.9" rx="2.2" ry="2.6" fill="url(#xnBead)"/>
    <ellipse cx="36.4" cy="118.8" rx="2.4" ry="2.9" fill="url(#xnBead)"/>
    <ellipse cx="51.8" cy="112.4" rx="1.9" ry="2.3" fill="url(#xnBead)"/>
    <ellipse cx="10.5" cy="105.5" rx="1.7" ry="2" fill="url(#xnBead)"/>
    <circle cx="20.4" cy="114.9" r="0.66" fill="#ffffff" opacity="0.78"/>
    <circle cx="35.5" cy="117.7" r="0.72" fill="#ffffff" opacity="0.78"/>
    <circle cx="51.1" cy="111.5" r="0.55" fill="#ffffff" opacity="0.72"/>
    <circle cx="9.9" cy="104.8" r="0.48" fill="#ffffff" opacity="0.68"/>
  </g>
</svg>
