<svg xmlns="http://www.w3.org/2000/svg" viewBox="0 0 128 128">
  <defs>
    <linearGradient id="fapBody" x1="0" y1="0" x2="1" y2="1">
      <stop offset="0%" stop-color="#3a2c30"/>
      <stop offset="100%" stop-color="#150f13"/>
    </linearGradient>
    <linearGradient id="fapDoor" x1="0" y1="0" x2="0.6" y2="1">
      <stop offset="0%" stop-color="#42292e"/>
      <stop offset="55%" stop-color="#2a1a1e"/>
      <stop offset="100%" stop-color="#170f13"/>
    </linearGradient>
    <linearGradient id="fapHdr" x1="0" y1="0" x2="0.6" y2="1">
      <stop offset="0%" stop-color="#b52626"/>
      <stop offset="55%" stop-color="#8a1818"/>
      <stop offset="100%" stop-color="#5c0f0f"/>
    </linearGradient>
    <radialGradient id="fapao" cx="0.5" cy="0.5" r="0.5">
      <stop offset="0%" stop-color="#04070c" stop-opacity="0.5"/>
      <stop offset="60%" stop-color="#04070c" stop-opacity="0.22"/>
      <stop offset="100%" stop-color="#04070c" stop-opacity="0"/>
    </radialGradient>
    <radialGradient id="fapglow" cx="0.5" cy="0.5" r="0.5">
      <stop offset="0%" stop-color="#ff6a4a" stop-opacity="0.42"/>
      <stop offset="100%" stop-color="#ff6a4a" stop-opacity="0"/>
    </radialGradient>
    <radialGradient id="fapblue" cx="0.5" cy="0.5" r="0.5">
      <stop offset="0%" stop-color="#88aacc" stop-opacity="0.3"/>
      <stop offset="100%" stop-color="#88aacc" stop-opacity="0"/>
    </radialGradient>
    <linearGradient id="fapsheen" x1="0" y1="0" x2="0.55" y2="1">
      <stop offset="0%" stop-color="#c6d7ea" stop-opacity="0.17"/>
      <stop offset="45%" stop-color="#c6d7ea" stop-opacity="0.05"/>
      <stop offset="100%" stop-color="#c6d7ea" stop-opacity="0"/>
    </linearGradient>
    <clipPath id="fapclip"><rect x="6" y="6" width="116" height="116" rx="6"/></clipPath>
    <clipPath id="fapclipD"><rect x="10" y="10" width="108" height="108" rx="4"/></clipPath>
  </defs>
  <!-- Panel body -->
  <rect x="6" y="6" width="116" height="116" rx="6" fill="url(#fapBody)"/>
  <g clip-path="url(#fapclip)">
    <rect x="6" y="6" width="116" height="116" fill="url(#fapsheen)"/>
    <ellipse cx="64" cy="122" rx="60" ry="10" fill="url(#fapao)"/>
  </g>
  <path d="M6.5 26 L6.5 12.5 A6 6 0 0 1 12.5 6.5 L110 6.5" fill="none" stroke="#c49a95" stroke-width="0.7" opacity="0.22" stroke-linecap="round"/>
  <path d="M121.5 100 L121.5 115.5 A6 6 0 0 1 115.5 121.5 L26 121.5" fill="none" stroke="#060a10" stroke-width="0.9" opacity="0.55" stroke-linecap="round"/>
  <!-- Door panel -->
  <rect x="10" y="10" width="108" height="108" rx="4" fill="url(#fapDoor)"/>
  <g clip-path="url(#fapclipD)">
    <rect x="10" y="10" width="108" height="108" fill="url(#fapsheen)"/>
    <ellipse cx="64" cy="118" rx="54" ry="10" fill="url(#fapao)"/>
  </g>
  <!-- Door hinge -->
  <rect x="10" y="10" width="4" height="108" rx="2" fill="#cc3333" opacity="0.28"/>
  <rect x="10" y="10" width="1.4" height="108" rx="0.7" fill="#ffd8cc" opacity="0.18"/>
  <path d="M14.5 118 L14.5 10.5" fill="none" stroke="#0a0508" stroke-width="0.8" opacity="0.5"/>
  <path d="M117.5 30 L117.5 114.5 A4 4 0 0 1 113.5 117.5 L40 117.5" fill="none" stroke="#060a10" stroke-width="0.9" opacity="0.5"/>
  <!-- Header bar (red) -->
  <ellipse cx="64" cy="27" rx="50" ry="3.6" fill="url(#fapao)"/>
  <rect x="14" y="14" width="100" height="12" rx="3" fill="url(#fapHdr)"/>
  <rect x="14" y="14" width="100" height="4.6" rx="2" fill="#d34a3a" opacity="0.35"/>
  <rect x="18" y="17" width="40" height="3" rx="1" fill="#ffffff" opacity="0.22"/>
  <path d="M14.5 17 A3 3 0 0 1 17.5 14.5 L110 14.5" fill="none" stroke="#ffd0c4" stroke-width="0.7" opacity="0.3"/>
  <path d="M113.5 22 A3 3 0 0 1 110.5 25.5 L20 25.5" fill="none" stroke="#1a0505" stroke-width="0.9" opacity="0.55"/>
  <!-- Alarm LED row (top) -->
  <ellipse cx="28" cy="32" rx="8" ry="8" fill="url(#fapglow)"/>
  <circle cx="28" cy="32" r="4" fill="#170707"/><circle cx="28" cy="32" r="2.5" fill="#ffffff" opacity="0.75"/><circle cx="27.2" cy="31.2" r="0.9" fill="#ffffff"/>
  <circle cx="40" cy="32" r="4" fill="#170707"/><circle cx="40" cy="32" r="2.5" fill="#ffffff" opacity="0.4"/>
  <circle cx="52" cy="32" r="4" fill="#170707"/><circle cx="52" cy="32" r="2.5" fill="#ffffff" opacity="0.3"/>
  <circle cx="64" cy="32" r="4" fill="#170707"/><circle cx="64" cy="32" r="2.5" fill="#ffffff" opacity="0.3"/>
  <circle cx="76" cy="32" r="4" fill="#170707"/><circle cx="76" cy="32" r="2.5" fill="#ffffff" opacity="0.3"/>
  <circle cx="88" cy="32" r="4" fill="#170707"/><circle cx="88" cy="32" r="2.5" fill="#ffffff" opacity="0.4"/>
  <circle cx="100" cy="32" r="4" fill="#170707"/><circle cx="100" cy="32" r="2.5" fill="#ffffff" opacity="0.3"/>
  <!-- Zone indicator LED matrix (left section) -->
  <ellipse cx="39" cy="91" rx="27" ry="4" fill="url(#fapao)"/>
  <rect x="14" y="40" width="50" height="50" rx="3" fill="#150c0c"/>
  <rect x="14" y="40" width="50" height="50" rx="3" fill="url(#fapsheen)"/>
  <path d="M14.5 43 A3 3 0 0 1 17.5 40.5 L61 40.5" fill="none" stroke="#c49a95" stroke-width="0.7" opacity="0.2"/>
  <path d="M63.5 82 L63.5 86.5 A3 3 0 0 1 60.5 89.5 L20 89.5" fill="none" stroke="#060a10" stroke-width="0.9" opacity="0.5"/>
  <ellipse cx="24" cy="48" rx="6" ry="6" fill="url(#fapglow)"/>
  <circle cx="24" cy="48" r="3" fill="#170707"/><circle cx="24" cy="48" r="1.8" fill="#ffffff" opacity="0.7"/>
  <circle cx="34" cy="48" r="3" fill="#170707"/><circle cx="34" cy="48" r="1.8" fill="#ffffff" opacity="0.3"/>
  <circle cx="44" cy="48" r="3" fill="#170707"/><circle cx="44" cy="48" r="1.8" fill="#ffffff" opacity="0.3"/>
  <circle cx="54" cy="48" r="3" fill="#170707"/><circle cx="54" cy="48" r="1.8" fill="#ffffff" opacity="0.3"/>
  <circle cx="24" cy="58" r="3" fill="#170707"/><circle cx="24" cy="58" r="1.8" fill="#ffffff" opacity="0.3"/>
  <circle cx="34" cy="58" r="3" fill="#170707"/><circle cx="34" cy="58" r="1.8" fill="#ffffff" opacity="0.3"/>
  <circle cx="44" cy="58" r="3" fill="#170707"/><circle cx="44" cy="58" r="1.8" fill="#ffffff" opacity="0.3"/>
  <circle cx="54" cy="58" r="3" fill="#170707"/><circle cx="54" cy="58" r="1.8" fill="#ffffff" opacity="0.3"/>
  <circle cx="24" cy="68" r="3" fill="#170707"/><circle cx="24" cy="68" r="1.8" fill="#ffffff" opacity="0.3"/>
  <circle cx="34" cy="68" r="3" fill="#170707"/><circle cx="34" cy="68" r="1.8" fill="#ffffff" opacity="0.3"/>
  <circle cx="44" cy="68" r="3" fill="#170707"/><circle cx="44" cy="68" r="1.8" fill="#ffffff" opacity="0.3"/>
  <circle cx="54" cy="68" r="3" fill="#170707"/><circle cx="54" cy="68" r="1.8" fill="#ffffff" opacity="0.3"/>
  <circle cx="24" cy="78" r="3" fill="#170707"/><circle cx="24" cy="78" r="1.8" fill="#ffffff" opacity="0.3"/>
  <circle cx="34" cy="78" r="3" fill="#170707"/><circle cx="34" cy="78" r="1.8" fill="#ffffff" opacity="0.3"/>
  <circle cx="44" cy="78" r="3" fill="#170707"/><circle cx="44" cy="78" r="1.8" fill="#ffffff" opacity="0.3"/>
  <circle cx="54" cy="78" r="3" fill="#170707"/><circle cx="54" cy="78" r="1.8" fill="#ffffff" opacity="0.3"/>
  <!-- LCD display (center-right) -->
  <ellipse cx="91" cy="69" rx="24" ry="3.6" fill="url(#fapao)"/>
  <rect x="68" y="40" width="46" height="28" rx="3" fill="#08151d"/>
  <rect x="68" y="40" width="46" height="28" rx="3" fill="none" stroke="#060a10" stroke-width="0.9" opacity="0.55"/>
  <ellipse cx="90" cy="52" rx="24" ry="15" fill="url(#fapblue)"/>
  <rect x="70" y="42" width="42" height="3" rx="1" fill="#a6c4e2" opacity="0.6"/>
  <rect x="70" y="48" width="30" height="2" rx="1" fill="#88aacc" opacity="0.45"/>
  <rect x="70" y="53" width="36" height="2" rx="1" fill="#88aacc" opacity="0.35"/>
  <rect x="70" y="58" width="24" height="2" rx="1" fill="#88aacc" opacity="0.32"/>
  <path d="M69 41 H100 L80 67 H69Z" fill="#c6d7ea" opacity="0.055"/>
  <path d="M68.6 41 A3 3 0 0 1 71 40.6 L112 40.6" fill="none" stroke="#8fa8c4" stroke-width="0.6" opacity="0.22"/>
  <!-- Keypad (right bottom) -->
  <ellipse cx="95" cy="105" rx="21" ry="3.6" fill="url(#fapao)"/>
  <rect x="76" y="72" width="38" height="32" rx="3" fill="#130b0b"/>
  <path d="M76.5 75 A3 3 0 0 1 79.5 72.5 L111 72.5" fill="none" stroke="#c49a95" stroke-width="0.7" opacity="0.16"/>
  <path d="M113.5 96 L113.5 100.5 A3 3 0 0 1 110.5 103.5 L82 103.5" fill="none" stroke="#060a10" stroke-width="0.9" opacity="0.5"/>
  <rect x="78" y="74" width="8" height="6" rx="1" fill="#241615"/><rect x="78" y="74" width="8" height="2.2" rx="1" fill="#e8c0b8" opacity="0.09"/>
  <rect x="88" y="74" width="8" height="6" rx="1" fill="#241615"/><rect x="88" y="74" width="8" height="2.2" rx="1" fill="#e8c0b8" opacity="0.09"/>
  <rect x="98" y="74" width="8" height="6" rx="1" fill="#241615"/><rect x="98" y="74" width="8" height="2.2" rx="1" fill="#e8c0b8" opacity="0.09"/>
  <rect x="78" y="82" width="8" height="6" rx="1" fill="#1f1312"/><rect x="78" y="82" width="8" height="2.2" rx="1" fill="#e8c0b8" opacity="0.08"/>
  <rect x="88" y="82" width="8" height="6" rx="1" fill="#1f1312"/><rect x="88" y="82" width="8" height="2.2" rx="1" fill="#e8c0b8" opacity="0.08"/>
  <rect x="98" y="82" width="8" height="6" rx="1" fill="#1f1312"/><rect x="98" y="82" width="8" height="2.2" rx="1" fill="#e8c0b8" opacity="0.08"/>
  <rect x="78" y="90" width="8" height="6" rx="1" fill="#1c1110"/><rect x="78" y="90" width="8" height="2.2" rx="1" fill="#e8c0b8" opacity="0.09"/>
  <rect x="88" y="90" width="8" height="6" rx="1" fill="#1c1110"/><rect x="88" y="90" width="8" height="2.2" rx="1" fill="#e8c0b8" opacity="0.09"/>
  <rect x="98" y="90" width="8" height="6" rx="1" fill="#1c1110"/><rect x="98" y="90" width="8" height="2.2" rx="1" fill="#e8c0b8" opacity="0.09"/>
  <rect x="78" y="98" width="26" height="5" rx="1" fill="#3e2424"/>
  <rect x="78" y="98" width="26" height="1.8" rx="0.9" fill="#f0cec6" opacity="0.11"/>
  <!-- Key switch -->
  <ellipse cx="21" cy="103" rx="8" ry="2.8" fill="url(#fapao)"/>
  <circle cx="21" cy="95" r="7" fill="#1a1010" stroke="#6b3838" stroke-width="1"/>
  <path d="M15.4 91.6 A7 7 0 0 1 26 91.1" fill="none" stroke="#e8c0b8" stroke-width="0.8" opacity="0.28"/>
  <circle cx="21" cy="95" r="4.5" fill="#2f1d1c"/>
  <line x1="21" y1="92" x2="21" y2="98" stroke="#a6c4e2" stroke-width="1.5" transform="rotate(45 21 95)"/>
  <!-- Bottom buttons row -->
  <ellipse cx="33" cy="105.5" rx="22" ry="2.8" fill="url(#fapao)"/>
  <rect x="14" y="96" width="18" height="8" rx="3" fill="#5c3838"/>
  <rect x="14" y="96" width="18" height="3" rx="1.5" fill="#f0cec6" opacity="0.15"/>
  <rect x="34" y="96" width="18" height="8" rx="3" fill="#2a3845"/>
  <rect x="34" y="96" width="18" height="3" rx="1.5" fill="#c6d7ea" opacity="0.12"/>
  <!-- Corner screws -->
  <circle cx="12" cy="12" r="2.5" fill="#150c0c"/><circle cx="12" cy="12" r="1.5" fill="#33201f"/><circle cx="12" cy="11.5" r="1.5" fill="#e8c0b8" opacity="0.16"/>
  <circle cx="116" cy="12" r="2.5" fill="#150c0c"/><circle cx="116" cy="12" r="1.5" fill="#33201f"/><circle cx="116" cy="11.5" r="1.5" fill="#e8c0b8" opacity="0.16"/>
  <circle cx="12" cy="116" r="2.5" fill="#150c0c"/><circle cx="12" cy="116" r="1.5" fill="#33201f"/><circle cx="12" cy="115.5" r="1.5" fill="#e8c0b8" opacity="0.09"/>
  <circle cx="116" cy="116" r="2.5" fill="#150c0c"/><circle cx="116" cy="116" r="1.5" fill="#33201f"/><circle cx="116" cy="115.5" r="1.5" fill="#e8c0b8" opacity="0.09"/>
</svg>
